<svg id="logo" width="200px" height="50px" viewBox="0 0 200 50" version="1.1" xmlns="http://www.w3.org/2000/svg" xmlns:xlink="http://www.w3.org/1999/xlink">
    <defs>
        <linearGradient x1="-45.9257347%" y1="0%" x2="-45.9257334%" y2="100%" id="linearGradient-1">
            <stop stop-color="#FFFA00" offset="0%"></stop>
            <stop stop-color="#FFFB8C" offset="100%"></stop>
        </linearGradient>
    </defs>
    <g id="Page-1" stroke="none" stroke-width="1" fill="none" fill-rule="evenodd">
        <g id="Artboard">
            <path d="M86.9393157,39.5486486 L86.9393157,45.5810811 L66,45.5810811 L66,15.8378378 L86.5616527,15.8378378 L86.5616527,21.8702703 L72.8818593,21.8702703 L72.8818593,27.6513514 L84.6313751,27.6513514 L84.6313751,33.222973 L72.8818593,33.222973 L72.8818593,39.5486486 L86.9393157,39.5486486 Z M125.41898,45.5810811 L118.704971,45.5810811 L118.704971,33.222973 C118.704971,31.7707135 118.439211,30.7164447 117.907682,30.0601351 C117.376154,29.4038255 116.690772,29.0756757 115.851517,29.0756757 C115.403914,29.0756757 114.949324,29.1734224 114.487734,29.3689189 C114.026144,29.5644154 113.599529,29.83671 113.207876,30.1858108 C112.816224,30.5349117 112.459545,30.9468445 112.137831,31.4216216 C111.816116,31.8963988 111.55735,32.4130603 111.361524,32.9716216 L111.361524,45.5810811 L104.647515,45.5810811 L104.647515,33.222973 C104.647515,31.7707135 104.381754,30.7164447 103.850226,30.0601351 C103.318698,29.4038255 102.633316,29.0756757 101.794061,29.0756757 C100.898855,29.0756757 100.024644,29.4317532 99.1714009,30.1439189 C98.318158,30.8560846 97.6957196,31.7986428 97.3040671,32.9716216 L97.3040671,45.5810811 L90.5900581,45.5810811 L90.5900581,23.5878378 L96.6326662,23.5878378 L96.6326662,27.2743243 C97.4439464,25.9337771 98.5419556,24.9144179 99.9267269,24.2162162 C101.311498,23.5180145 102.92704,23.1689189 104.773402,23.1689189 C105.696583,23.1689189 106.500857,23.2806295 107.186249,23.5040541 C107.871641,23.7274786 108.466105,24.0346827 108.969658,24.4256757 C109.473211,24.8166686 109.878845,25.2704929 110.186572,25.7871622 C110.494299,26.3038314 110.718097,26.8554025 110.857973,27.4418919 C111.697228,26.0734166 112.802231,25.0191478 114.173015,24.2790541 C115.543799,23.5389603 117.110385,23.1689189 118.872821,23.1689189 C120.27158,23.1689189 121.397564,23.4272497 122.250807,23.9439189 C123.10405,24.4605882 123.76845,25.1308517 124.244028,25.9547297 C124.719606,26.7786077 125.034322,27.6792744 125.188186,28.6567568 C125.342049,29.6342391 125.41898,30.5837792 125.41898,31.5054054 L125.41898,45.5810811 Z M143.043254,46 C141.364743,46 139.896068,45.6439225 138.637185,44.9317568 C137.378302,44.219591 136.385198,43.2211776 135.657844,41.9364865 L135.657844,45.5810811 L129.825048,45.5810811 L129.825048,15 L136.539057,15 L136.539057,27.1905405 C137.266412,25.9337775 138.238535,24.9493279 139.455455,24.2371622 C140.672375,23.5249964 142.106082,23.1689189 143.756617,23.1689189 C145.155376,23.1689189 146.442215,23.4691411 147.617172,24.0695946 C148.79213,24.670048 149.799221,25.4869318 150.638476,26.5202703 C151.477732,27.5536088 152.135139,28.7754434 152.610717,30.1858108 C153.086295,31.5961782 153.32408,33.0972893 153.32408,34.6891892 C153.32408,36.281089 153.065314,37.7682363 152.547773,39.1506757 C152.030232,40.533115 151.309882,41.7340039 150.386701,42.7533784 C149.46352,43.7727528 148.372505,44.5686908 147.113622,45.1412162 C145.854739,45.7137416 144.497963,46 143.043254,46 Z M141.154939,40.3445946 C141.938244,40.3445946 142.6516,40.1979744 143.295029,39.9047297 C143.938458,39.611485 144.49096,39.213516 144.95255,38.7108108 C145.41414,38.2081056 145.777812,37.6146431 146.043577,36.9304054 C146.309341,36.2461677 146.442221,35.4991031 146.442221,34.6891892 C146.442221,33.9072033 146.316334,33.1601387 146.064558,32.447973 C145.812781,31.7358072 145.47009,31.1144171 145.036475,30.5837838 C144.60286,30.0531505 144.078333,29.6342358 143.462879,29.327027 C142.847425,29.0198183 142.190019,28.8662162 141.490639,28.8662162 C140.427582,28.8662162 139.45546,29.2292756 138.574241,29.9554054 C137.693023,30.6815352 137.014635,31.5891837 136.539057,32.6783784 L136.539057,37.2864865 C136.98666,38.2360408 137.637073,38.9831054 138.490316,39.5277027 C139.343559,40.0723 140.231758,40.3445946 141.154939,40.3445946 Z M167.213686,46 C165.367325,46 163.70982,45.6997778 162.241123,45.0993243 C160.772426,44.4988709 159.52755,43.6819871 158.506456,42.6486486 C157.485362,41.6153101 156.709062,40.4214032 156.177534,39.0668919 C155.646006,37.7123806 155.380245,36.2950524 155.380245,34.8148649 C155.380245,33.222965 155.646006,31.7218539 156.177534,30.3114865 C156.709062,28.9011191 157.478368,27.6653206 158.485474,26.6040541 C159.492581,25.5427875 160.730464,24.704958 162.199161,24.0905405 C163.667858,23.4761231 165.339349,23.1689189 167.213686,23.1689189 C169.088023,23.1689189 170.752521,23.4761231 172.20723,24.0905405 C173.66194,24.704958 174.892829,25.5358056 175.899935,26.5831081 C176.907042,27.6304106 177.669354,28.8382814 178.186895,30.2067568 C178.704436,31.5752321 178.963202,33.013506 178.963202,34.5216216 C178.963202,34.9126146 178.949215,35.2966197 178.92124,35.6736486 C178.893264,36.0506776 178.851302,36.3788274 178.795352,36.6581081 L162.51388,36.6581081 C162.625781,38.1382957 163.164295,39.2623835 164.129438,40.0304054 C165.094582,40.7984273 166.192591,41.1824324 167.423499,41.1824324 C168.40263,41.1824324 169.346778,40.9450474 170.255972,40.4702703 C171.165165,39.9954931 171.773616,39.3531572 172.081343,38.5432432 L177.78825,40.1351351 C176.92102,41.8666753 175.578232,43.2770216 173.759845,44.3662162 C171.941459,45.4554109 169.759427,46 167.213686,46 Z M171.87153,32.5108108 C171.731654,31.1144074 171.228108,30.0112653 170.360878,29.2013514 C169.493647,28.3914374 168.416619,27.9864865 167.129761,27.9864865 C165.814928,27.9864865 164.730906,28.3984193 163.877663,29.2222973 C163.02442,30.0461753 162.527868,31.1423355 162.387992,32.5108108 L171.87153,32.5108108 Z M196,29.327027 C194.37744,29.3549551 192.908765,29.6202678 191.593932,30.122973 C190.279098,30.6256782 189.327956,31.3797247 188.740478,32.3851351 L188.740478,45.5810811 L182.026469,45.5810811 L182.026469,23.5878378 L188.194964,23.5878378 L188.194964,28.0283784 C188.950294,26.5481908 189.922417,25.3891934 191.111362,24.5513514 C192.300307,23.7135093 193.566165,23.2806308 194.908974,23.2527027 L195.580374,23.2527027 C195.72025,23.2527027 195.860124,23.2666665 196,23.2945946 L196,29.327027 Z" id="Ember" fill="#FFFB54"></path>
            <g id="Group" transform="translate(2.000000, 0.000000)" fill="url(#linearGradient-1)" fill-rule="nonzero">
                <path d="M39.3536451,22.9909321 C47.7415796,32.9891649 46.2072441,42.0059323 34.7506386,50.0412343 C35.8435059,46.8990479 34.7506386,42.9135742 32.503418,39.3251953 L26.044845,28.9628708 L19.7712402,39.3251953 C19.7059618,39.4069839 15.2867681,46.4553814 17.2154096,49.8308574 C10.65745,45.129456 7.26471984,41.004004 7.03721895,37.4545012 C6.69596762,32.1295571 8.72586184,26.763917 12.5898437,22.9909321 L26.044845,10 C26.044845,10 34.9965091,15.8408842 34.2348758,27.7406168 L39.3536451,22.9909321 Z" id="Shape"></path>
                <polygon id="Shape" points="47 37 50 37 50 40 47 40"></polygon>
                <polygon id="Shape" points="34 6 37 6 37 9 34 9"></polygon>
                <polygon id="Shape" points="15 0 18 0 18 3 15 3"></polygon>
                <polygon id="Shape" points="0 22 3 22 3 25 0 25"></polygon>
            </g>
        </g>
    </g>
</svg>