<svg width="380px" height="271px" viewBox="0 0 380 271" version="1.1" xmlns="http://www.w3.org/2000/svg" xmlns:xlink="http://www.w3.org/1999/xlink">
    <!-- Generator: Sketch 48.2 (47327) - http://www.bohemiancoding.com/sketch -->
    <title>Artboard</title>
    <desc>Created with Sketch.</desc>
    <defs></defs>
    <g id="Page-1" stroke="none" stroke-width="1" fill="none" fill-rule="evenodd">
        <g id="Artboard">
            <polygon id="Path-7" stroke="#FFFFFF" stroke-width="3" stroke-linecap="round" stroke-linejoin="round" transform="translate(322.500000, 69.000000) rotate(332.000000) translate(-322.500000, -69.000000) " points="243 36.8672 402 36 328.038106 102 314.93495 50.9370771 275.219735 99.2913988 321.457596 77.1341763 275.219735 99.2913988 278.167335 57.1217862 402 36 278.167335 57.1217862"></polygon>
            <path d="M5.07537973,269 L4,266.215151 C10.3593312,263.865622 16.6424522,261.461866 22.8576847,259 L24,261.759231 C17.7624359,264.229943 11.457003,266.642235 5.07537973,269 Z" id="Path" fill="#FFFFFF"></path>
            <path d="M69.282811,242 L68,239.197848 C73.9250939,236.210322 79.8054576,233.145732 85.647805,230 L87,232.765988 C81.1346364,235.924114 75.2311425,239.000758 69.282811,242 Z" id="Path" fill="#FFFFFF"></path>
            <path d="M130.573343,208 L129,205.43342 C134.802683,202.044483 140.587727,198.567918 146.360745,195 L148,197.526973 C142.205221,201.10834 136.398205,204.598109 130.573343,208 Z" id="Path" fill="#FFFFFF"></path>
            <path d="M189.763949,169 L188,166.612188 C193.387956,162.834447 198.780833,158.964817 204.183,155 L206,157.349753 C200.580365,161.32739 195.169806,165.209708 189.763949,169 Z" id="Path" fill="#FFFFFF"></path>
        </g>
    </g>
</svg>