
<svg width="583px" height="376px" viewBox="0 0 583 376" version="1.1" xmlns="http://www.w3.org/2000/svg" xmlns:xlink="http://www.w3.org/1999/xlink">
    <title>Artboard</title>
    <desc>Created with Sketch.</desc>
    <defs></defs>
    <g id="Page-1" stroke="none" stroke-width="1" fill="none" fill-rule="evenodd">
        <g id="Artboard" fill="#FFFFFF">
            <path d="M2,4.64829216 L4.56665418,3 C7.95733845,7.78324859 11.3530032,12.6548004 16,19.3807492 L13.4130212,21 C8.77216711,14.282942 5.38252254,9.42002697 2,4.64829216 Z" id="Path"></path>
            <path d="M41,62.7297369 L43.403192,61 C44.9321699,63.1863842 46.4391334,65.310355 47.9324251,67.3823509 C49.3842683,69.3968255 52.1473858,72.2538171 56,75.7806107 L54.0260273,78 C50.0332125,74.3448628 47.1563084,71.3702189 45.5538327,69.1467374 C44.0520763,67.0629964 42.5369316,64.9274946 41,62.7297369 Z" id="Path"></path>
            <path d="M93,109.322877 L94.8395746,107 C100.413915,111.105347 105.781308,114.971769 111,118.63748 L109.215539,121 C103.977716,117.320851 98.5920305,113.441252 93,109.322877 Z" id="Path"></path>
            <path d="M151,149.470079 L152.555842,147 C158.417275,150.357357 164.219098,153.505135 170,156.4605 L168.572341,159 C162.747424,156.022134 156.902921,152.8512 151,149.470079 Z" id="Path"></path>
            <path d="M214,179.791321 L215.02522,177 C221.251828,179.225883 227.566927,181.274457 234,183.153195 L233.145795,186 C226.655209,184.104466 220.28308,182.037391 214,179.791321 Z" id="Path"></path>
            <path d="M282,197.291775 L282.392936,194 C289.313641,195.027856 295.847475,195.583318 302,195.6795 L301.958279,199 C295.685286,198.901935 289.034477,198.336528 282,197.291775 Z" id="Path"></path>
            <path d="M350.638186,187 L349,184.406989 C354.736798,180.742988 359.583066,176.250706 363.572029,171 L366,172.864717 C361.794112,178.400964 356.681163,183.140448 350.638186,187 Z" id="Path"></path>
            <path d="M381,125 L377.802385,124.998801 C377.805198,118.500571 377.17784,111.906066 376,105.501997 L379.151775,105 C380.359541,111.566783 381.002878,118.329247 381,125 Z" id="Path"></path>
            <path d="M353,62.4006279 L351.40664,65 C346.254586,61.6057616 340.394253,58.5292845 334,55.8563746 L335.110947,53 C341.668118,55.7410127 347.689736,58.9021591 353,62.4006279 Z" id="Path"></path>
            <path d="M286,43.2164071 L285.833189,45.8347148 C279.208287,45.5057553 272.637574,45.5578632 266.231521,46 L266,43.3855315 C272.540551,42.9341119 279.244232,42.8809495 286,43.2164071 Z" id="Path"></path>
            <path d="M217.470355,57 L219,59.5850313 C213.421181,63.1115349 208.446873,67.2523912 204.138309,72 L202,69.9269724 C206.491908,64.9773364 211.671494,60.6655966 217.470355,57 Z" id="Path"></path>
            <path d="M185.200829,117 L188,117.131669 C187.741648,123.354983 187.744266,130.002403 187.959858,136.900835 L185.159505,137 C184.941659,130.029432 184.939011,123.306819 185.200829,117 Z" id="Path"></path>
            <path d="M196,186.117588 L198.697631,185 C200.124622,188.528174 201.440086,191.594857 202.269981,193.343062 C203.61593,196.178351 205.20359,199.283947 207,202.572694 L204.448978,204 C202.626174,200.662933 201.013033,197.507494 199.642598,194.620625 C198.783279,192.810439 197.446963,189.695142 196,186.117588 Z" id="Path"></path>
            <path d="M233,245.84981 L235.311826,244 C239.333435,249.052269 243.563847,254.065858 248,259.018584 L245.799331,261 C241.324534,256.004132 237.057086,250.946649 233,245.84981 Z" id="Path"></path>
            <path d="M282,296.344447 L283.97052,294 C289.164706,298.311878 294.507791,302.49711 300,306.546733 L298.168514,309 C292.628601,304.915203 287.239175,300.693672 282,296.344447 Z" id="Path"></path>
            <path d="M341,333.676591 L342.247149,331 C348.168628,333.553054 354.411845,335.967263 361,338.238871 L359.971124,341 C353.309624,338.703102 346.993594,336.260737 341,333.676591 Z" id="Path"></path>
            <path d="M408,355.154685 L408.593848,352 C414.844614,353.384138 421.311242,354.658593 428,355.820775 L427.530406,359 C420.800433,357.830657 414.292387,356.54804 408,355.154685 Z" id="Path"></path>
            <path d="M478,363.819925 L478.225718,361 C484.659845,361.46479 491.250377,361.856991 498,362.175415 L497.852347,365 C491.076873,364.680357 484.460322,364.286607 478,363.819925 Z" id="Path"></path>
            <path d="M548.012684,366 L548,363.244718 C554.5233,363.219281 561.167388,363.137935 567.933703,363 L568,365.754631 C561.215926,365.892928 554.553969,365.974493 548.012684,366 Z" id="Path"></path>
        </g>
    </g>
</svg>